<svg width="1920" height="1080" xmlns="http://www.w3.org/2000/svg"><path fill="#f3f1fe" d="M0 0h1920v1080H0z"/><path d="M0 360h0c92.567 38.651 185.133 77.303 292 67 106.867-10.303 228.033-69.559 332-97 103.967-27.441 190.733-23.067 298-2s235.033 58.826 344 57c108.967-1.826 199.133-43.236 305-54 105.867-10.764 227.433 9.118 389 29" fill="none" stroke="#d2c9fb" stroke-width="5" stroke-linecap="round"/><path d="M0 720h0c108.587-33.128 217.174-66.256 318-74s193.89 9.897 290 14c96.11 4.103 195.267-5.333 315-16s260.044-22.564 373 15c112.956 37.564 198.559 124.59 298 143 99.441 18.41 212.72-31.795 366-82" fill="none" stroke="#9985f7" stroke-width="5" stroke-linecap="round"/></svg>