<svg width="1920" height="1080" xmlns="http://www.w3.org/2000/svg"><path fill="#f3f1fe" d="M0 0h1920v1080H0z"/><path d="M0 360h0c125.57 31.474 251.138 62.949 357 49 105.862-13.949 192.015-73.32 283-80 90.985-6.68 186.8 39.333 297 29 110.2-10.333 234.785-77.013 341-80 106.215-2.987 194.062 57.718 298 82 103.938 24.282 223.97 12.141 384 0" fill="none" stroke="#907af7" stroke-width="12" stroke-linecap="round"/><path d="M0 720h0c87.21-41.664 174.42-83.328 284-80 109.58 3.328 241.528 51.649 348 79 106.472 27.351 187.467 33.733 289 45 101.533 11.267 223.605 27.418 342 4 118.395-23.418 233.113-86.405 342-101 108.887-14.595 211.944 19.203 355 53" fill="none" stroke="#927df7" stroke-width="12" stroke-linecap="round"/></svg>