<svg id="visual" viewBox="0 0 960 540" width="960" height="540" xmlns="http://www.w3.org/2000/svg" xmlns:xlink="http://www.w3.org/1999/xlink" version="1.1"><rect x="0" y="0" width="960" height="540" fill="#fcf4ff"></rect><defs><linearGradient id="grad1_0" x1="43.8%" y1="100%" x2="100%" y2="0%"><stop offset="14.444444444444446%" stop-color="#9073ff" stop-opacity="1"></stop><stop offset="85.55555555555554%" stop-color="#9073ff" stop-opacity="1"></stop></linearGradient></defs><defs><linearGradient id="grad1_1" x1="43.8%" y1="100%" x2="100%" y2="0%"><stop offset="14.444444444444446%" stop-color="#9073ff" stop-opacity="1"></stop><stop offset="85.55555555555554%" stop-color="#d5b0fc" stop-opacity="1"></stop></linearGradient></defs><defs><linearGradient id="grad1_2" x1="43.8%" y1="100%" x2="100%" y2="0%"><stop offset="14.444444444444446%" stop-color="#fcf4ff" stop-opacity="1"></stop><stop offset="85.55555555555554%" stop-color="#d5b0fc" stop-opacity="1"></stop></linearGradient></defs><defs><linearGradient id="grad2_0" x1="0%" y1="100%" x2="56.3%" y2="0%"><stop offset="14.444444444444446%" stop-color="#9073ff" stop-opacity="1"></stop><stop offset="85.55555555555554%" stop-color="#9073ff" stop-opacity="1"></stop></linearGradient></defs><defs><linearGradient id="grad2_1" x1="0%" y1="100%" x2="56.3%" y2="0%"><stop offset="14.444444444444446%" stop-color="#d5b0fc" stop-opacity="1"></stop><stop offset="85.55555555555554%" stop-color="#9073ff" stop-opacity="1"></stop></linearGradient></defs><defs><linearGradient id="grad2_2" x1="0%" y1="100%" x2="56.3%" y2="0%"><stop offset="14.444444444444446%" stop-color="#d5b0fc" stop-opacity="1"></stop><stop offset="85.55555555555554%" stop-color="#fcf4ff" stop-opacity="1"></stop></linearGradient></defs><g transform="translate(960, 540)"><path d="M-405 0C-400.6 -54.8 -396.2 -109.5 -374.2 -155C-352.1 -200.5 -312.4 -236.7 -274.4 -274.4C-236.3 -312 -200 -351.2 -154.6 -373.2C-109.2 -395.3 -54.6 -400.1 0 -405L0 0Z" fill="#ebd1fc"></path><path d="M-270 0C-267.1 -36.5 -264.2 -73 -249.4 -103.3C-234.7 -133.6 -208.2 -157.8 -182.9 -182.9C-157.6 -208 -133.4 -234.2 -103.1 -248.8C-72.8 -263.5 -36.4 -266.8 0 -270L0 0Z" fill="#b790fd"></path><path d="M-135 0C-133.5 -18.3 -132.1 -36.5 -124.7 -51.7C-117.4 -66.8 -104.1 -78.9 -91.5 -91.5C-78.8 -104 -66.7 -117.1 -51.5 -124.4C-36.4 -131.8 -18.2 -133.4 0 -135L0 0Z" fill="#9073ff"></path></g><g transform="translate(0, 0)"><path d="M405 0C399.3 52.6 393.5 105.3 374.2 155C354.8 204.7 321.9 251.6 280 280C238.2 308.5 187.4 318.5 139.3 336.3C91.1 354.1 45.6 379.5 0 405L0 0Z" fill="#ebd1fc"></path><path d="M270 0C266.2 35.1 262.3 70.2 249.4 103.3C236.5 136.5 214.6 167.7 186.7 186.7C158.8 205.6 125 212.4 92.9 224.2C60.8 236 30.4 253 0 270L0 0Z" fill="#b790fd"></path><path d="M135 0C133.1 17.5 131.2 35.1 124.7 51.7C118.3 68.2 107.3 83.9 93.3 93.3C79.4 102.8 62.5 106.2 46.4 112.1C30.4 118 15.2 126.5 0 135L0 0Z" fill="#9073ff"></path></g></svg>